<?xml version="1.0" encoding="UTF-8"?>
<svg xmlns="http://www.w3.org/2000/svg" xmlns:xlink="http://www.w3.org/1999/xlink" width="252pt" height="252pt" viewBox="0 0 252 252" version="1.1">
<g id="surface1">
<path style=" stroke:none;fill-rule:nonzero;fill:rgb(9.803922%,11.764706%,14.509804%);fill-opacity:1;" d="M 208.582031 13.515625 C 205.101562 9.714844 200.183594 7.554688 195.03125 7.558594 L 56.96875 7.558594 C 51.8125 7.5625 46.894531 9.738281 43.417969 13.550781 C 40.027344 17.289062 38.351562 22.277344 38.808594 27.308594 C 39.867188 38.503906 42.898438 53.84375 51.324219 63.359375 C 56.753906 69.515625 62.933594 74.96875 69.71875 79.589844 C 74.609375 83.074219 78.121094 85.597656 81.40625 91.097656 C 82.640625 93.191406 82.621094 93.273438 82.152344 95.457031 C 81.554688 98.066406 81.253906 100.734375 81.261719 103.414062 C 81.261719 106.078125 81.429688 108.746094 81.757812 111.390625 C 80.832031 115.476562 79.574219 123.226562 81.882812 128.117188 C 78.726562 134.097656 79.800781 141.019531 80.851562 144.917969 C 74.207031 154.585938 80.011719 166.757812 80.3125 167.304688 C 80.433594 167.546875 80.574219 167.78125 80.730469 168 C 76.390625 174.300781 77.457031 181.289062 79.40625 185.808594 C 77.675781 187.648438 75.828125 190.679688 74.996094 195.558594 C 70.796875 197.113281 66.082031 200.691406 65.570312 207.757812 C 65.425781 209.707031 65.191406 211.636719 64.957031 213.511719 C 64.191406 219.566406 63.410156 225.824219 66.148438 231.007812 C 71.039062 240.25 100.128906 244.449219 125.085938 244.449219 C 131.316406 244.449219 185.917969 243.925781 185.917969 226.101562 L 185.976562 223.238281 C 186.203125 216.089844 186.691406 200.625 176.164062 195.90625 C 176.164062 190.476562 174.007812 183.867188 172.007812 178.84375 C 172.960938 176.644531 173.445312 174.269531 173.425781 171.871094 C 173.425781 165.582031 172.617188 160.96875 171 158.027344 C 172.628906 155.273438 173.472656 152.125 173.425781 148.921875 C 173.425781 140.390625 171.855469 135.484375 170.308594 132.769531 C 170.375 132.199219 170.40625 131.625 170.410156 131.046875 C 170.410156 123.019531 168.359375 117.480469 166.480469 114.089844 C 166.796875 113.703125 167.058594 113.359375 167.242188 113.097656 C 168.578125 111.761719 170.789062 108.738281 170.789062 103.386719 C 170.796875 100.707031 170.496094 98.035156 169.898438 95.425781 C 169.429688 93.238281 169.402344 93.15625 170.636719 91.074219 C 173.90625 85.570312 177.441406 83.050781 182.3125 79.566406 C 189.089844 74.957031 195.261719 69.511719 200.675781 63.359375 C 209.074219 53.84375 212.132812 38.503906 213.191406 27.308594 C 213.65625 22.265625 211.984375 17.261719 208.582031 13.515625 Z M 166.203125 196.558594 C 163.339844 199.347656 142.019531 205.464844 125.992188 205.464844 C 88.878906 205.464844 84.933594 200.003906 84.832031 200.003906 C 84.835938 199.960938 84.835938 199.917969 84.832031 199.878906 C 85.066406 195.542969 86.242188 193.652344 86.847656 192.957031 C 91.675781 195.308594 99.953125 197.609375 113.835938 197.609375 C 117.902344 197.609375 122.445312 197.417969 127.527344 196.964844 C 139.875 195.871094 154.785156 193.6875 164.1875 187.589844 C 165.554688 191.863281 166.378906 195.570312 166.203125 196.558594 Z M 114.785156 176.886719 C 119.429688 176.882812 124.070312 176.53125 128.664062 175.84375 C 144.226562 173.550781 155.441406 170.320312 162.757812 165.882812 C 163.03125 167.890625 163.152344 169.914062 163.128906 171.941406 C 163.128906 173.070312 162.839844 174.183594 162.289062 175.171875 C 162.035156 175.476562 161.816406 175.8125 161.640625 176.164062 C 156.726562 182.648438 140.546875 185.488281 126.605469 186.730469 C 96.976562 189.34375 89.402344 182.65625 89.25 182.65625 C 88.671875 181.707031 86.21875 177.03125 89.945312 172.914062 C 97.949219 175.609375 106.34375 176.9375 114.785156 176.84375 Z M 163.128906 148.992188 C 163.128906 156.550781 151.03125 162.160156 127.160156 165.679688 C 106.511719 168.738281 93.0625 163.398438 88.957031 161.421875 C 88.277344 159.480469 87.367188 155.878906 88.394531 152.695312 C 92.441406 154.125 99.113281 155.433594 109.972656 155.433594 C 114.644531 155.433594 120.101562 155.191406 126.46875 154.59375 C 143.640625 153.019531 155.792969 149.660156 162.925781 144.511719 C 163.050781 145.722656 163.128906 147.210938 163.128906 148.949219 Z M 158.558594 121.523438 C 159.632812 124.578125 160.160156 127.800781 160.113281 131.039062 C 160.117188 131.097656 160.117188 131.15625 160.113281 131.214844 C 159.707031 131.898438 159.460938 132.667969 159.390625 133.460938 C 156.792969 137.769531 146.957031 142.347656 125.539062 144.304688 C 102.195312 146.445312 93.214844 143.605469 90.871094 142.625 C 90.257812 140.472656 89.375 136.246094 90.871094 133.140625 C 97.6875 134.167969 104.574219 134.699219 111.46875 134.726562 C 135.339844 134.769531 150.175781 127.679688 158.558594 121.480469 Z M 125.058594 234.199219 C 94.617188 234.199219 77.179688 228.386719 75.214844 226.210938 C 73.980469 223.894531 74.53125 219.492188 75.128906 214.789062 C 75.375 212.738281 75.640625 210.628906 75.800781 208.503906 C 75.832031 207.628906 76.195312 206.800781 76.808594 206.179688 C 77.003906 206.414062 77.195312 206.640625 77.40625 206.859375 C 81.019531 210.65625 90.007812 215.703125 125.992188 215.703125 C 139.539062 215.703125 162.675781 211.203125 171.578125 205.246094 C 175.382812 206.875 175.996094 213.117188 175.6875 222.9375 L 175.804688 225.339844 C 173.703125 228.480469 154.964844 234.199219 125.058594 234.199219 Z M 202.960938 26.335938 C 202.046875 36.003906 199.601562 49.097656 192.988281 56.574219 C 188.074219 62.140625 182.472656 67.066406 176.324219 71.230469 C 171.089844 74.96875 166.160156 78.496094 161.785156 85.855469 C 158.734375 91.003906 159.046875 93.960938 159.820312 97.617188 C 160.273438 99.523438 160.496094 101.476562 160.492188 103.4375 C 160.464844 104.1875 160.367188 104.933594 160.203125 105.664062 C 159.71875 106.027344 159.300781 106.472656 158.96875 106.980469 C 158.820312 107.21875 142.800781 130.9375 90.863281 122.832031 C 90.601562 120.785156 91.023438 116.464844 91.894531 112.894531 C 92.054688 112.234375 92.085938 111.546875 91.988281 110.871094 C 91.636719 108.410156 91.46875 105.929688 91.476562 103.445312 C 91.46875 101.488281 91.695312 99.539062 92.148438 97.632812 C 92.921875 93.996094 93.230469 91.03125 90.175781 85.875 C 85.804688 78.515625 80.875 74.953125 75.632812 71.25 C 69.496094 67.070312 63.910156 62.128906 59.011719 56.546875 C 52.425781 49.105469 49.953125 36.011719 49.039062 26.308594 C 48.835938 24.15625 49.5625 22.015625 51.03125 20.429688 C 52.554688 18.757812 54.707031 17.804688 56.96875 17.800781 L 195.03125 17.800781 C 197.292969 17.804688 199.445312 18.757812 200.96875 20.429688 C 202.445312 22.023438 203.171875 24.171875 202.960938 26.335938 Z M 202.960938 26.335938 "/>
</g>
</svg>
